<svg xmlns="http://www.w3.org/2000/svg" version="1.1" xmlns:xlink="http://www.w3.org/1999/xlink" xmlns:svgjs="http://svgjs.dev/svgjs" width="1500" height="1500" viewBox="0 0 1500 1500"><rect width="1500" height="1500" fill="#000000"></rect><g transform="matrix(0.6666666666666666,0,0,0.6666666666666666,250.41933295880318,358.3174089068825)"><svg viewBox="0 0 315 247" data-background-color="#ffffff" preserveAspectRatio="xMidYMid meet" height="1176" width="1500" xmlns="http://www.w3.org/2000/svg" xmlns:xlink="http://www.w3.org/1999/xlink"><g id="tight-bounds" transform="matrix(1,0,0,1,-0.13208988202299565,-0.09999999999999432)"><svg viewBox="0 0 315.264179764046 247.2" height="247.2" width="315.264179764046"><g><svg viewBox="0 0 395.52 310.1289340044155" height="247.2" width="315.264179764046"><g transform="matrix(1,0,0,1,0,230.75121774143975)"><svg viewBox="0 0 395.52 79.37771626297577" height="79.37771626297577" width="395.52"><g id="textblocktransform"><svg viewBox="0 0 395.52 79.37771626297577" height="79.37771626297577" width="395.52" id="textblock"><g><svg viewBox="0 0 395.52 79.37771626297577" height="79.37771626297577" width="395.52"><g transform="matrix(1,0,0,1,0,0)"><svg width="395.52" viewBox="3.25 -35 231.18 46.4" height="79.37771626297577" data-palette-color="#ff908b"><path d="M23.2-10.35L23.2-35 27.9-35 27.9-11Q27.9-5.05 24.83-2.27 21.75 0.5 15.55 0.5 9.35 0.5 6.3-2.27 3.25-5.05 3.25-11L3.25-11 3.25-35 7.95-35 7.95-10.35Q7.95-6.95 10.03-5.43 12.1-3.9 15.5-3.9L15.5-3.9Q19-3.9 21.1-5.43 23.2-6.95 23.2-10.35L23.2-10.35ZM34.4 0L34.4-24 43.05-24Q48.6-24 51-22.35L51-22.35Q53.15-20.9 53.72-18.88 54.3-16.85 54.3-13.55L54.3-13.55 54.3 0 49.9 0 49.9-13.5Q49.9-14.4 49.85-15.03 49.8-15.65 49.5-16.63 49.2-17.6 48.65-18.23 48.1-18.85 47.05-19.33 46-19.8 44.5-19.8L44.5-19.8 38.8-19.8 38.8 0 34.4 0ZM68.09-24L76.95-24 76.95-19.8 68.09-19.8Q66.64-19.8 65.59-19.25 64.55-18.7 64.55-17.7L64.55-17.7Q64.55-17.1 64.8-16.63 65.05-16.15 65.37-15.85 65.7-15.55 66.37-15.23 67.05-14.9 67.42-14.78 67.8-14.65 70.59-13.75 73.4-12.85 74.75-12.25 76.09-11.65 76.82-10.63 77.55-9.6 77.75-8.63 77.95-7.65 77.95-6.7L77.95-6.7Q77.95 0 68.75 0L68.75 0 60.09 0 60.09-4.2 68.75-4.2Q73.45-4.2 73.45-6.7L73.45-6.7Q73.45-7.9 72.07-8.7 70.7-9.5 68.72-10.05 66.75-10.6 64.77-11.33 62.8-12.05 61.42-13.68 60.05-15.3 60.05-17.7L60.05-17.7Q60.05-20.75 62.4-22.38 64.75-24 68.09-24L68.09-24ZM87.44 11.4L82.94 11.4 82.94-12Q82.94-14.6 83.89-16.9 84.84-19.2 86.49-20.88 88.14-22.55 90.39-23.53 92.64-24.5 95.19-24.5L95.19-24.5Q97.74-24.5 99.97-23.53 102.19-22.55 103.87-20.85 105.54-19.15 106.49-16.88 107.44-14.6 107.44-12L107.44-12Q107.44-9.4 106.52-7.13 105.59-4.85 103.94-3.15 102.29-1.45 100.04-0.48 97.79 0.5 95.19 0.5L95.19 0.5Q91.99 0.5 89.24-1L89.24-1 89.24-5.5Q91.69-3.7 95.04-3.7L95.04-3.7Q96.84-3.7 98.32-4.33 99.79-4.95 100.82-6.05 101.84-7.15 102.39-8.68 102.94-10.2 102.94-12L102.94-12Q102.94-13.8 102.39-15.33 101.84-16.85 100.84-17.95 99.84-19.05 98.42-19.68 96.99-20.3 95.19-20.3L95.19-20.3Q93.44-20.3 92.02-19.7 90.59-19.1 89.57-18 88.54-16.9 87.99-15.38 87.44-13.85 87.44-12L87.44-12 87.44 11.4ZM112.69-9.5L112.69-9.5 112.69-35 117.19-35 117.19-9.5Q117.19-7.7 117.62-6.58 118.04-5.45 118.94-4.98 119.84-4.5 120.69-4.35 121.54-4.2 122.94-4.2L122.94-4.2 122.94 0Q117.34 0 115.02-2.15 112.69-4.3 112.69-9.5ZM139.54-14.1L139.54-14.1 139.54-9.6Q137.64-11.05 134.89-11.05L134.89-11.05Q132.54-11.05 131.24-10.13 129.94-9.2 129.94-7.5L129.94-7.5Q129.94-4.2 134.84-4.2L134.84-4.2 141.44-4.2 141.44-13.75Q141.44-19.8 135.54-19.8L135.54-19.8 127.54-19.8 127.54-24 135.79-24Q140.64-24 143.24-21.6 145.84-19.2 145.84-14.7L145.84-14.7 145.84 0 134.69 0Q130.44 0 127.94-1.9 125.44-3.8 125.44-7.45 125.44-11.1 128.09-13 130.74-14.9 134.74-14.9L134.74-14.9Q136.99-14.9 139.54-14.1ZM159.14-24L167.99-24 167.99-19.8 159.14-19.8Q157.69-19.8 156.64-19.25 155.59-18.7 155.59-17.7L155.59-17.7Q155.59-17.1 155.84-16.63 156.09-16.15 156.41-15.85 156.74-15.55 157.41-15.23 158.09-14.9 158.46-14.78 158.84-14.65 161.64-13.75 164.44-12.85 165.78-12.25 167.14-11.65 167.86-10.63 168.59-9.6 168.79-8.63 168.99-7.65 168.99-6.7L168.99-6.7Q168.99 0 159.78 0L159.78 0 151.14 0 151.14-4.2 159.78-4.2Q164.49-4.2 164.49-6.7L164.49-6.7Q164.49-7.9 163.11-8.7 161.74-9.5 159.76-10.05 157.78-10.6 155.81-11.33 153.84-12.05 152.46-13.68 151.09-15.3 151.09-17.7L151.09-17.7Q151.09-20.75 153.44-22.38 155.78-24 159.14-24L159.14-24ZM173.98-35L178.38-35 178.38-24 182.63-24Q188.18-24 190.58-22.35L190.58-22.35Q192.73-20.9 193.31-18.88 193.88-16.85 193.88-13.55L193.88-13.55 193.88 0 189.48 0 189.48-13.5Q189.48-14.4 189.43-15.03 189.38-15.65 189.08-16.63 188.78-17.6 188.23-18.23 187.68-18.85 186.63-19.33 185.58-19.8 184.08-19.8L184.08-19.8 178.38-19.8 178.38 0 173.98 0 173.98-35ZM210.78-34.4L210.78-34.4 210.78-35 215.48-35 215.48-34.4Q215.48-24.4 222.53-20.35L222.53-20.35Q226.48-22.55 228.05-26.05 229.63-29.55 229.63-34.4L229.63-34.4 229.63-35 234.43-35 234.43-33.95Q234.43-23.55 226.73-18.3L226.73-18.3Q234.43-12.95 234.43-2.65L234.43-2.65 234.43 0 229.63 0 229.63-2.2Q229.63-7.05 228.05-10.55 226.48-14.05 222.53-16.25L222.53-16.25Q215.48-12.2 215.48-2.2L215.48-2.2 215.48 0 210.78 0 210.78-2.2Q210.78-12.9 218.48-18.3L218.48-18.3Q210.78-23.6 210.78-34.4Z" opacity="1" transform="matrix(1,0,0,1,0,0)" fill="#ffffff" class="wordmark-text-0" data-fill-palette-color="primary" id="text-0"></path></svg></g></svg></g></svg></g></svg></g><g transform="matrix(1,0,0,1,101.12356487377839,0)"><svg viewBox="0 0 193.2728702524432 193.2728702524432" height="193.2728702524432" width="193.2728702524432"><g><svg></svg></g><g id="icon-0"><svg viewBox="0 0 193.2728702524432 193.2728702524432" height="193.2728702524432" width="193.2728702524432"><g><path d="M0 96.636c0-53.371 43.266-96.636 96.636-96.636 53.371 0 96.636 43.266 96.637 96.636 0 53.371-43.266 96.636-96.637 96.637-53.371 0-96.636-43.266-96.636-96.637zM96.636 186.115c49.417 0 89.478-40.061 89.479-89.479 0-49.417-40.061-89.478-89.479-89.478-49.417 0-89.478 40.061-89.478 89.478 0 49.417 40.061 89.478 89.478 89.479z" data-fill-palette-color="accent" fill="#ffffff" stroke="transparent"></path><ellipse rx="95.67007077495938" ry="95.67007077495938" cx="96.6364351262216" cy="96.6364351262216" fill="#ffffff" stroke="transparent" stroke-width="0" fill-opacity="1" data-fill-palette-color="accent"></ellipse></g><g transform="matrix(1,0,0,1,40.713107984394185,44.20831593075841)"><svg viewBox="0 0 111.84665428365483 104.85623839092638" height="104.85623839092638" width="111.84665428365483"><g><svg xmlns="http://www.w3.org/2000/svg" xmlns:xlink="http://www.w3.org/1999/xlink" version="1.1" x="0" y="0" viewBox="0 1.5 48 44.99999999999999" style="enable-background:new 0 0 48 48;" xml:space="preserve" height="104.85623839092638" width="111.84665428365483" class="icon-cg-0" data-fill-palette-color="quaternary" id="cg-0"><g fill="#ffffff" data-fill-palette-color="quaternary"><path d="M11 29.3c0.2-0.3 0.6-0.5 0.9-0.5 0 0 0 0 0 0 0.4 0 0.7 0.2 0.9 0.5l7.5 10.9 12.4-20.8c0.2-0.3 0.6-0.5 1-0.5 0 0 0 0 0 0 0.4 0 0.8 0.2 1 0.6L48 43.1V1.5H0v43L11 29.3zM12.7 5.6c4.3 0 7.8 3.5 7.8 7.8s-3.5 7.8-7.8 7.8-7.8-3.5-7.8-7.8S8.4 5.6 12.7 5.6z" fill="#000000" data-fill-palette-color="quaternary"></path><path d="M19.5 43l-3.8-5.6L14 40.9c-0.2 0.3-0.5 0.6-0.8 0.6-0.1 0-0.1 0-0.2 0-0.3 0-0.6-0.1-0.8-0.4L8.2 37l-6.9 9.4h20.4L19.5 43C19.5 43 19.5 43 19.5 43z" fill="#000000" data-fill-palette-color="quaternary"></path><circle cx="12.7" cy="13.4" r="5.5" fill="#000000" data-fill-palette-color="quaternary"></circle><polygon points="14.2,35.3 11.9,31.9 9.6,35.1 12.7,38.4  " fill="#000000" data-fill-palette-color="quaternary"></polygon><path d="M32.9 30.9c0.2-0.3 0.6-0.5 0.9-0.5 0 0 0 0 0 0 0.4 0 0.7 0.2 0.9 0.5l1.5 2.4 1-4.5-3.6-6.4L30 28.6l1.8 4.1L32.9 30.9z" fill="#000000" data-fill-palette-color="quaternary"></path><path d="M39 31.7l-1 4.7c-0.1 0.4-0.5 0.8-0.9 0.9-0.1 0-0.1 0-0.2 0-0.4 0-0.7-0.2-0.9-0.5l-2.1-3.2-1.4 2.1c-0.2 0.3-0.6 0.6-1 0.5-0.4 0-0.8-0.3-0.9-0.7l-2-4.5-6.8 11.4 2.8 4.1h22.7L39 31.7z" fill="#000000" data-fill-palette-color="quaternary"></path></g></svg></g></svg></g></svg></g></svg></g><g></g></svg></g><defs></defs></svg><rect width="315.264179764046" height="247.2" fill="none" stroke="none" visibility="hidden"></rect></g></svg></g></svg>